<svg id="svg" version="1.1" xmlns="http://www.w3.org/2000/svg" xmlns:xlink="http://www.w3.org/1999/xlink" width="400" height="417.9959100204499" viewBox="0, 0, 400,417.9959100204499"><g id="svgg"><path id="path0" d="M126.574 15.911 C 118.453 23.755,106.114 35.550,103.009 38.435 C 101.255 40.066,97.205 43.930,94.009 47.023 C 90.814 50.115,86.411 54.345,84.224 56.423 C 82.037 58.500,79.832 60.597,79.324 61.082 L 78.400 61.964 78.400 174.517 L 78.400 287.070 82.900 291.463 C 85.375 293.879,89.463 297.823,91.985 300.228 C 94.507 302.632,98.557 306.516,100.985 308.857 C 103.413 311.199,106.030 313.694,106.800 314.402 C 107.570 315.111,111.620 318.973,115.800 322.986 C 119.980 326.998,124.930 331.744,126.800 333.531 L 130.200 336.781 200.000 336.780 L 269.800 336.780 273.011 333.690 C 274.777 331.990,279.992 327.000,284.600 322.600 C 289.208 318.200,295.032 312.620,297.542 310.200 C 300.052 307.780,302.318 305.620,302.576 305.400 C 303.269 304.812,311.494 296.914,316.902 291.645 L 321.604 287.063 321.502 249.632 L 321.400 212.200 278.500 212.098 L 235.600 211.996 235.600 231.618 L 235.600 251.240 234.300 252.531 C 233.585 253.242,231.269 255.393,229.154 257.311 L 225.307 260.800 200.000 260.800 L 174.693 260.800 170.846 257.340 C 168.731 255.437,166.415 253.280,165.700 252.546 L 164.400 251.212 164.400 174.462 L 164.400 97.712 168.071 94.356 C 170.090 92.510,172.475 90.417,173.371 89.704 L 175.000 88.408 199.900 88.404 C 216.236 88.401,224.800 88.538,224.800 88.800 C 224.800 89.020,225.025 89.201,225.300 89.202 C 225.575 89.203,226.342 89.698,227.004 90.302 C 227.666 90.906,229.871 92.904,231.904 94.743 L 235.600 98.087 235.600 117.645 L 235.600 137.204 278.500 137.102 L 321.400 137.000 321.502 99.578 L 321.604 62.156 318.102 58.741 C 311.738 52.536,302.664 43.813,298.400 39.801 C 293.432 35.126,278.607 20.949,273.205 15.707 L 269.400 12.014 200.000 12.018 L 130.600 12.022 126.574 15.911 M266.126 20.864 C 266.607 21.118,269.160 23.433,271.800 26.007 C 274.440 28.581,278.215 32.198,280.188 34.044 C 282.162 35.890,286.572 40.113,289.988 43.429 C 293.405 46.745,297.184 50.345,298.386 51.429 C 299.589 52.513,303.415 56.178,306.889 59.572 L 313.205 65.745 313.102 97.372 L 313.000 129.000 278.400 129.000 L 243.800 129.000 243.696 111.561 L 243.592 94.122 240.630 91.361 C 239.002 89.843,237.069 88.077,236.335 87.437 C 235.601 86.798,234.182 85.538,233.182 84.637 C 230.099 81.860,228.928 80.897,228.094 80.450 C 227.545 80.157,218.491 80.016,199.456 80.005 C 168.582 79.988,171.647 79.730,168.635 82.600 C 167.942 83.260,166.571 84.503,165.588 85.362 C 164.604 86.220,162.135 88.526,160.100 90.485 L 156.400 94.048 156.400 174.788 L 156.400 255.529 157.700 256.609 C 158.415 257.202,159.722 258.343,160.604 259.144 C 161.487 259.945,164.097 262.310,166.404 264.400 C 168.712 266.490,170.660 268.335,170.733 268.500 C 170.807 268.665,183.884 268.800,199.793 268.800 L 228.719 268.800 231.460 266.342 C 232.967 264.989,235.844 262.377,237.853 260.536 C 239.862 258.695,241.975 256.820,242.549 256.369 L 243.592 255.548 243.696 237.874 L 243.800 220.200 278.400 220.200 L 313.000 220.200 313.102 252.026 L 313.205 283.852 310.102 286.799 C 308.396 288.420,304.924 291.738,302.387 294.173 C 299.850 296.608,296.067 300.220,293.980 302.200 C 291.894 304.180,286.140 309.665,281.193 314.389 C 276.247 319.112,270.826 324.287,269.146 325.889 L 266.092 328.800 200.022 328.800 L 133.952 328.800 131.676 326.705 C 129.497 324.698,127.252 322.556,115.199 310.985 C 102.136 298.443,91.225 288.010,89.100 286.028 L 86.800 283.884 86.800 174.826 L 86.800 65.768 92.700 59.980 C 95.945 56.797,99.950 52.942,101.600 51.414 C 103.250 49.886,107.584 45.747,111.231 42.218 C 124.895 28.995,132.941 21.385,133.758 20.914 C 134.950 20.227,264.832 20.177,266.126 20.864 " stroke="none" fill="#062d5c" fill-rule="evenodd"></path><path id="path1" d="M138.971 31.999 C 138.515 32.177,135.482 34.900,132.232 38.050 C 128.982 41.201,125.935 44.043,125.461 44.367 C 124.988 44.690,124.117 45.505,123.527 46.177 C 121.089 48.957,119.675 50.400,119.388 50.400 C 119.221 50.400,118.056 51.435,116.800 52.700 C 115.544 53.965,112.735 56.663,110.558 58.696 C 105.302 63.605,99.503 69.244,98.887 70.047 C 98.495 70.558,98.406 91.990,98.462 172.447 C 98.502 228.411,98.497 275.240,98.451 276.512 L 98.368 278.824 101.984 282.406 C 103.973 284.376,105.600 286.170,105.600 286.394 C 105.600 286.617,105.798 286.800,106.041 286.800 C 106.283 286.800,107.678 287.950,109.141 289.355 C 114.354 294.364,118.968 298.400,119.480 298.400 C 119.766 298.400,120.000 298.557,120.000 298.748 C 120.000 299.596,123.307 303.055,130.375 309.600 C 133.108 312.130,135.716 314.622,136.172 315.138 C 138.067 317.285,134.466 317.168,199.706 317.192 C 241.351 317.207,260.658 317.082,261.422 316.792 C 262.033 316.559,263.611 315.341,264.929 314.085 C 266.247 312.828,268.864 310.360,270.746 308.600 C 272.627 306.840,275.917 303.690,278.058 301.600 C 280.198 299.510,284.321 295.550,287.219 292.800 C 290.118 290.050,294.092 286.233,296.050 284.317 C 298.008 282.401,299.838 280.691,300.115 280.517 C 302.016 279.322,302.000 279.537,302.000 255.028 C 302.000 232.698,301.977 232.016,301.226 231.614 C 300.349 231.145,258.071 231.093,256.400 231.559 L 255.400 231.838 255.369 244.651 C 255.338 257.257,255.137 259.929,254.350 258.200 C 254.092 257.633,254.033 257.983,254.148 259.400 L 254.311 261.400 248.322 266.600 C 245.029 269.460,241.015 273.060,239.403 274.600 C 237.791 276.140,235.725 278.004,234.813 278.742 L 233.154 280.084 199.814 280.040 L 166.475 279.995 165.108 278.698 C 161.671 275.435,156.232 270.564,155.646 270.225 C 155.291 270.019,154.641 269.394,154.202 268.837 C 153.763 268.280,153.069 267.548,152.660 267.212 C 152.252 266.875,151.261 266.019,150.459 265.309 C 149.656 264.599,148.883 264.014,148.740 264.009 C 147.888 263.979,145.429 260.823,145.150 259.400 C 144.976 258.520,144.827 220.028,144.817 173.863 L 144.800 89.925 145.634 89.707 C 146.231 89.551,146.324 89.400,145.962 89.176 C 145.283 88.757,147.110 86.360,149.341 84.744 C 151.348 83.291,154.800 80.063,154.800 79.640 C 154.800 79.473,155.565 78.781,156.500 78.103 C 158.097 76.945,160.413 74.852,164.248 71.100 C 165.604 69.773,166.081 69.534,166.938 69.749 C 167.746 69.951,167.929 69.881,167.757 69.432 C 167.565 68.932,171.645 68.837,198.068 68.727 C 228.873 68.599,231.482 68.661,231.300 69.525 C 231.177 70.110,231.696 70.144,232.253 69.587 C 232.815 69.025,236.216 71.760,242.721 78.004 C 243.754 78.996,245.485 80.526,246.567 81.404 C 248.861 83.266,250.795 85.147,250.811 85.531 C 250.817 85.679,251.554 86.250,252.449 86.800 C 255.216 88.500,255.200 88.402,255.200 103.152 C 255.200 114.610,255.283 116.425,255.829 116.971 C 256.724 117.867,300.825 117.934,301.566 117.041 C 301.907 116.630,302.017 110.567,301.980 94.141 C 301.922 68.194,302.461 71.155,296.833 65.859 C 294.945 64.081,292.107 61.361,290.527 59.813 C 288.947 58.266,285.752 55.203,283.427 53.007 C 281.102 50.811,279.200 48.827,279.200 48.598 C 279.200 48.369,278.570 47.843,277.801 47.428 C 277.031 47.014,275.495 45.668,274.387 44.437 C 273.280 43.207,272.244 42.058,272.087 41.884 C 271.417 41.147,268.580 38.801,268.358 38.800 C 268.225 38.800,267.615 38.007,267.002 37.038 C 266.389 36.068,265.418 35.038,264.844 34.749 C 264.270 34.459,263.119 33.627,262.286 32.899 L 260.772 31.577 200.286 31.627 C 167.019 31.654,139.427 31.822,138.971 31.999 M142.500 318.276 C 142.885 318.376,143.515 318.376,143.900 318.276 C 144.285 318.175,143.970 318.093,143.200 318.093 C 142.430 318.093,142.115 318.175,142.500 318.276 " stroke="none" fill="#eb1c24" fill-rule="evenodd"></path><path id="path2" d="M128.693 12.000 C 128.040 12.763,128.046 12.800,128.828 12.800 C 129.278 12.800,129.536 12.620,129.400 12.400 C 129.236 12.134,152.796 12.000,199.776 12.000 C 246.592 12.000,270.400 11.865,270.400 11.600 C 270.400 10.692,129.472 11.090,128.693 12.000 M119.899 20.373 C 116.213 24.054,113.313 27.180,113.453 27.320 C 113.684 27.551,127.200 14.250,127.200 13.792 C 127.200 13.202,125.979 14.302,119.899 20.373 M272.400 14.000 C 272.400 14.220,272.670 14.400,273.000 14.400 C 273.330 14.400,273.600 14.591,273.600 14.824 C 273.600 15.057,273.781 15.135,274.003 14.998 C 274.255 14.842,274.191 14.534,273.832 14.174 C 273.168 13.511,272.400 13.417,272.400 14.000 M274.400 15.353 C 274.400 15.849,287.883 29.183,288.133 28.934 C 288.273 28.794,285.544 25.871,282.067 22.439 C 275.464 15.921,274.400 14.938,274.400 15.353 M131.600 23.884 C 130.390 25.100,128.950 26.385,128.400 26.738 C 127.850 27.092,124.516 30.266,120.990 33.791 C 117.465 37.316,113.421 41.190,112.004 42.400 C 110.586 43.610,105.697 48.290,101.138 52.800 C 96.580 57.310,92.295 61.450,91.618 62.000 C 90.941 62.550,89.855 63.472,89.205 64.050 L 88.023 65.100 87.802 77.650 C 87.681 84.552,87.496 133.665,87.391 186.789 L 87.200 283.379 93.328 289.389 C 96.699 292.695,100.434 296.287,101.628 297.371 C 102.823 298.455,106.694 302.145,110.230 305.571 C 113.767 308.997,117.817 312.870,119.230 314.178 C 120.644 315.486,124.338 319.020,127.440 322.032 C 130.543 325.044,133.456 327.709,133.914 327.954 C 134.517 328.277,152.808 328.400,200.120 328.400 L 265.492 328.400 266.646 327.508 C 267.281 327.018,268.440 325.983,269.223 325.208 C 270.006 324.434,272.621 321.910,275.033 319.600 C 290.088 305.187,296.437 299.134,298.200 297.513 C 299.300 296.502,302.969 292.991,306.354 289.711 L 312.508 283.748 312.565 252.274 L 312.623 220.800 278.311 220.800 L 244.000 220.800 244.000 238.240 L 244.000 255.679 242.852 256.740 C 242.220 257.323,241.095 258.327,240.352 258.971 C 239.608 259.615,237.110 261.874,234.800 263.991 C 232.490 266.108,230.081 268.236,229.446 268.720 L 228.292 269.600 200.000 269.600 L 171.708 269.600 170.554 268.711 C 169.919 268.222,168.590 267.081,167.600 266.177 C 165.806 264.537,162.612 261.647,158.281 257.745 L 156.000 255.689 156.000 174.647 L 156.000 93.605 158.412 91.303 C 159.739 90.036,161.951 87.920,163.327 86.600 C 164.703 85.280,166.958 83.165,168.337 81.900 L 170.846 79.600 199.640 79.600 L 228.434 79.600 230.516 81.500 C 231.661 82.545,232.889 83.715,233.246 84.100 C 233.602 84.485,234.053 84.802,234.247 84.804 C 234.441 84.806,235.550 85.714,236.712 86.820 C 237.906 87.958,239.020 88.711,239.274 88.554 C 239.552 88.382,239.612 88.457,239.431 88.749 C 239.251 89.040,240.071 90.083,241.565 91.464 L 243.992 93.706 244.096 111.153 L 244.200 128.600 278.175 128.702 C 298.273 128.763,312.242 128.656,312.375 128.441 C 312.590 128.093,312.479 106.399,312.118 78.256 L 311.949 65.113 310.993 64.156 C 310.467 63.630,309.913 63.200,309.761 63.200 C 309.610 63.200,308.971 62.660,308.340 62.000 C 307.709 61.340,307.087 60.800,306.957 60.800 C 306.827 60.800,306.204 60.246,305.572 59.570 C 304.939 58.893,304.239 58.452,304.016 58.590 C 303.768 58.744,303.712 58.572,303.874 58.151 C 304.075 57.629,303.981 57.522,303.490 57.710 C 303.010 57.894,302.906 57.790,303.090 57.310 C 303.274 56.830,303.170 56.726,302.690 56.910 C 302.210 57.094,302.106 56.990,302.290 56.510 C 302.478 56.019,302.371 55.925,301.849 56.126 C 301.414 56.293,301.255 56.234,301.419 55.969 C 301.783 55.380,293.734 47.470,293.142 47.836 C 292.848 48.017,292.784 47.949,292.969 47.651 C 293.249 47.198,292.216 46.041,289.888 44.200 C 289.331 43.760,288.124 42.704,287.205 41.853 C 286.013 40.750,285.410 40.430,285.104 40.736 C 284.555 41.285,285.496 42.526,286.244 42.239 C 286.550 42.121,286.677 42.255,286.557 42.567 C 286.446 42.856,287.131 43.833,288.078 44.737 C 289.025 45.641,291.576 48.076,293.746 50.149 C 296.206 52.500,298.123 54.005,298.838 54.148 C 299.586 54.297,299.911 54.565,299.775 54.920 C 299.518 55.591,303.454 59.737,304.018 59.389 C 304.431 59.134,306.800 61.393,306.800 62.042 C 306.800 62.239,307.115 62.402,307.500 62.404 C 307.965 62.407,308.584 63.234,309.344 64.866 L 310.488 67.324 310.234 78.762 C 309.882 94.629,310.010 119.772,310.443 119.933 C 311.824 120.449,309.806 126.000,308.236 126.000 C 307.717 126.000,306.776 126.271,306.146 126.602 C 304.858 127.280,275.775 127.043,275.020 126.349 C 274.526 125.895,271.871 125.897,271.380 126.352 C 270.636 127.041,248.137 127.334,247.878 126.658 C 247.752 126.330,247.233 126.003,246.724 125.931 C 245.106 125.702,245.144 121.777,246.777 120.499 L 248.000 119.542 248.000 106.595 C 248.000 99.114,247.844 93.551,247.631 93.419 C 247.428 93.294,247.147 92.698,247.007 92.095 C 246.810 91.253,246.209 90.738,244.405 89.868 C 243.114 89.245,241.100 87.844,239.929 86.755 C 237.345 84.352,232.269 80.800,231.418 80.800 C 231.078 80.800,230.800 80.465,230.800 80.055 C 230.800 79.645,230.325 78.835,229.745 78.255 L 228.691 77.200 199.645 77.206 L 170.600 77.212 165.063 82.606 C 162.018 85.573,159.288 88.000,158.996 88.000 C 158.705 88.000,158.407 88.142,158.333 88.314 C 158.033 89.022,155.608 90.400,154.662 90.400 C 154.104 90.400,153.539 90.576,153.406 90.791 C 152.980 91.480,153.182 244.142,153.609 244.569 C 154.184 245.144,154.108 252.532,153.520 253.120 C 153.147 253.493,153.147 253.707,153.520 254.080 C 153.784 254.344,154.000 254.939,154.000 255.403 C 154.000 255.939,154.973 257.113,156.667 258.623 C 161.097 262.571,165.199 266.730,165.209 267.281 C 165.226 268.265,169.246 271.373,171.155 271.877 C 172.518 272.237,180.305 272.369,200.947 272.382 L 228.894 272.400 231.747 270.233 C 233.316 269.042,236.216 266.432,238.192 264.433 C 240.167 262.435,241.983 260.800,242.226 260.800 C 242.470 260.800,243.868 259.558,245.334 258.039 L 248.000 255.278 248.000 241.862 C 248.000 233.350,247.854 228.357,247.600 228.200 C 247.014 227.838,247.111 224.971,247.726 224.461 C 248.479 223.837,309.523 223.621,309.761 224.242 C 309.854 224.485,309.953 236.358,309.979 250.626 C 310.021 272.798,310.113 276.662,310.614 277.216 C 311.390 278.072,311.406 281.546,310.636 281.841 C 310.326 281.961,309.970 282.450,309.846 282.929 C 309.525 284.161,301.230 292.400,300.310 292.400 C 300.108 292.400,298.323 293.975,296.343 295.900 C 294.363 297.825,292.409 299.580,292.000 299.800 C 291.592 300.020,289.281 302.135,286.864 304.500 C 284.448 306.865,282.310 308.800,282.114 308.800 C 281.918 308.800,278.253 312.265,273.970 316.500 C 269.686 320.735,265.783 324.425,265.296 324.700 C 264.235 325.299,258.953 325.371,258.595 324.792 C 258.305 324.323,141.724 324.543,138.908 325.018 C 136.249 325.466,134.263 324.402,129.185 319.805 C 127.967 318.702,126.572 317.535,126.085 317.212 C 125.598 316.888,125.200 316.435,125.200 316.204 C 125.200 315.613,117.491 308.000,116.893 308.000 C 116.622 308.000,116.400 307.777,116.400 307.505 C 116.400 306.991,106.028 296.400,105.524 296.400 C 105.366 296.400,102.754 293.961,99.719 290.980 C 96.683 288.000,93.709 285.297,93.109 284.975 C 91.357 284.034,89.863 280.336,90.217 277.816 C 90.373 276.707,90.555 235.210,90.622 185.600 C 90.731 104.844,90.553 80.963,89.770 71.312 C 89.502 68.012,90.153 66.369,92.900 63.417 C 93.725 62.530,94.400 61.578,94.400 61.302 C 94.400 61.026,94.596 60.800,94.836 60.800 C 95.076 60.800,96.496 59.585,97.992 58.100 C 102.782 53.345,107.157 49.200,107.385 49.200 C 107.761 49.200,109.945 47.192,114.592 42.572 C 117.043 40.137,119.352 38.027,119.724 37.885 C 120.096 37.742,120.400 37.349,120.400 37.013 C 120.400 36.676,120.625 36.395,120.900 36.390 C 121.175 36.384,123.409 34.449,125.864 32.090 C 135.878 22.468,134.644 23.051,144.400 23.336 C 157.327 23.714,256.768 23.793,260.061 23.428 C 262.852 23.119,263.227 23.164,264.322 23.945 C 264.983 24.415,265.681 24.800,265.873 24.800 C 266.066 24.800,266.483 25.160,266.800 25.600 C 267.117 26.040,267.608 26.400,267.891 26.400 C 268.173 26.400,269.496 27.435,270.831 28.700 C 272.166 29.965,273.470 31.070,273.729 31.156 C 273.988 31.242,275.057 32.107,276.105 33.077 C 277.192 34.084,278.206 34.720,278.467 34.559 C 278.739 34.390,278.814 34.453,278.653 34.714 C 278.339 35.222,279.955 36.875,280.461 36.563 C 280.647 36.447,280.800 36.644,280.800 37.000 C 280.800 37.373,280.988 37.531,281.245 37.372 C 281.489 37.221,281.840 37.340,282.023 37.637 C 282.206 37.934,282.475 38.058,282.621 37.913 C 283.033 37.500,280.851 35.521,280.335 35.840 C 280.046 36.018,279.986 35.946,280.172 35.646 C 280.468 35.167,273.558 28.060,270.794 26.000 C 270.056 25.450,268.680 24.235,267.737 23.300 L 266.021 21.600 199.911 21.637 L 133.800 21.673 131.600 23.884 M151.600 28.847 C 150.208 29.093,150.207 29.095,151.400 29.184 C 154.284 29.400,243.942 29.376,245.959 29.159 L 248.200 28.918 246.000 28.816 C 241.092 28.589,152.897 28.618,151.600 28.847 M135.582 30.034 C 135.336 30.493,135.227 30.960,135.340 31.073 C 135.526 31.259,132.226 34.800,131.867 34.800 C 131.543 34.800,119.200 47.144,119.200 47.468 C 119.200 47.656,118.718 48.168,118.128 48.605 C 117.538 49.042,116.646 49.805,116.146 50.300 C 115.646 50.795,115.060 51.200,114.845 51.200 C 114.630 51.200,114.340 51.560,114.200 52.000 C 114.060 52.440,113.718 52.800,113.439 52.800 C 113.160 52.800,109.426 56.276,105.142 60.525 C 100.857 64.774,97.160 68.187,96.927 68.109 C 96.167 67.856,96.012 69.646,95.931 79.600 C 95.888 84.990,95.786 88.455,95.705 87.300 C 95.623 86.128,95.364 85.200,95.118 85.200 C 94.808 85.200,94.755 86.536,94.937 89.700 C 95.080 92.175,95.197 136.024,95.198 187.142 L 95.200 280.084 100.534 285.342 C 103.467 288.234,107.997 292.580,110.600 295.000 C 113.203 297.420,117.621 301.650,120.418 304.400 C 129.445 313.277,136.737 320.082,137.828 320.648 C 138.709 321.105,145.107 321.200,175.166 321.200 C 199.565 321.200,211.575 321.335,211.853 321.613 C 212.126 321.886,215.978 321.961,223.233 321.836 C 236.524 321.606,234.614 321.606,248.108 321.836 C 262.816 322.086,259.838 323.702,278.776 305.200 C 280.690 303.330,284.556 299.640,287.367 297.000 C 290.178 294.360,295.250 289.500,298.639 286.200 L 304.801 280.200 304.800 254.962 C 304.800 231.361,304.754 229.683,304.095 229.086 C 302.916 228.019,252.098 227.978,251.319 229.043 C 250.688 229.906,251.013 241.828,251.691 242.686 C 252.452 243.650,252.601 257.335,251.857 257.953 C 251.496 258.253,251.200 258.721,251.200 258.994 C 251.200 259.421,246.795 263.656,241.418 268.400 C 239.401 270.179,236.259 273.039,234.200 274.971 C 231.650 277.362,232.902 277.273,200.400 277.389 C 167.151 277.508,168.403 277.593,165.806 275.066 C 165.316 274.590,163.504 272.940,161.779 271.400 C 160.055 269.860,158.272 268.240,157.818 267.800 C 157.363 267.360,155.831 266.010,154.413 264.800 C 152.995 263.590,150.882 261.682,149.717 260.560 L 147.600 258.521 147.600 174.887 C 147.600 91.605,147.603 91.253,148.400 91.000 C 148.840 90.860,149.200 90.502,149.200 90.204 C 149.200 89.605,151.825 86.893,153.992 85.253 C 154.757 84.674,156.314 83.300,157.451 82.200 C 164.618 75.266,165.990 74.072,167.696 73.280 L 169.591 72.400 200.770 72.400 C 234.161 72.400,233.151 72.334,235.235 74.645 C 237.697 77.375,240.846 80.400,241.227 80.400 C 241.432 80.400,241.693 80.397,241.807 80.394 C 241.921 80.391,242.596 81.051,243.307 81.862 C 245.710 84.601,247.038 85.850,248.929 87.151 C 251.634 89.012,252.490 90.010,251.944 90.668 C 251.619 91.059,251.632 91.356,251.991 91.790 C 252.550 92.463,252.173 97.200,251.561 97.200 C 250.961 97.200,251.147 105.220,251.788 107.000 C 252.551 109.116,252.602 113.600,251.864 113.600 C 250.174 113.600,249.851 118.730,251.449 120.210 C 253.105 121.745,254.067 121.800,279.291 121.800 L 303.182 121.800 304.093 120.800 L 305.004 119.800 304.695 104.800 C 304.525 96.550,304.293 85.254,304.180 79.699 L 303.974 69.597 297.856 63.499 C 294.492 60.144,290.673 56.451,289.369 55.292 C 283.378 49.962,282.225 48.902,280.859 47.472 C 276.537 42.948,272.688 39.157,270.430 37.200 C 267.964 35.063,265.685 32.999,263.567 30.983 L 262.533 30.000 199.890 30.000 C 158.560 30.000,137.163 29.864,137.000 29.600 C 136.608 28.965,136.065 29.131,135.582 30.034 M103.872 35.700 C 100.655 38.835,97.162 42.236,96.111 43.257 C 93.473 45.820,91.906 47.639,92.136 47.870 C 92.243 47.976,96.403 43.999,101.381 39.032 C 106.360 34.064,110.273 30.000,110.077 30.000 C 109.882 30.000,107.089 32.565,103.872 35.700 M289.200 30.400 C 289.200 30.620,289.571 30.800,290.024 30.800 C 290.477 30.800,290.736 30.620,290.600 30.400 C 290.464 30.180,290.093 30.000,289.776 30.000 C 289.459 30.000,289.200 30.180,289.200 30.400 M262.869 31.897 C 264.569 33.299,263.684 32.467,273.822 42.200 C 286.083 53.972,285.718 53.620,294.700 62.307 L 302.800 70.141 302.800 93.842 C 302.800 115.002,302.732 117.611,302.162 118.181 C 301.456 118.887,255.237 118.971,254.533 118.267 C 254.350 118.084,254.149 111.514,254.087 103.667 L 253.974 89.400 252.445 88.000 C 251.604 87.230,250.284 86.060,249.511 85.400 C 248.738 84.740,246.777 83.011,245.153 81.558 C 243.529 80.105,240.400 77.316,238.200 75.360 C 236.000 73.405,233.958 71.574,233.662 71.293 C 231.887 69.605,232.393 69.630,199.641 69.607 C 164.935 69.584,167.694 69.364,164.417 72.405 C 160.231 76.288,154.844 81.231,152.820 83.046 C 147.884 87.470,146.120 89.506,145.860 91.078 C 145.524 93.114,145.597 256.082,145.935 258.469 C 146.188 260.252,146.433 260.547,151.200 264.825 C 153.950 267.293,157.730 270.697,159.600 272.390 C 161.470 274.083,164.040 276.401,165.312 277.541 L 167.624 279.614 200.140 279.507 L 232.656 279.400 236.415 276.000 C 238.482 274.130,240.630 272.187,241.187 271.681 C 241.744 271.176,244.854 268.386,248.097 265.481 L 253.994 260.200 253.997 246.074 C 253.999 237.107,254.151 231.665,254.414 231.174 C 254.995 230.088,301.090 229.948,302.171 231.029 C 302.729 231.586,302.800 234.322,302.800 255.104 L 302.800 278.550 301.913 279.775 C 301.426 280.449,299.039 282.890,296.610 285.200 C 290.172 291.323,275.172 305.639,271.000 309.642 C 269.020 311.542,266.266 314.155,264.880 315.448 L 262.360 317.800 202.480 318.000 C 169.546 318.110,141.495 318.140,140.144 318.067 C 137.394 317.917,138.495 318.759,128.598 309.247 C 126.396 307.131,122.706 303.616,120.398 301.436 C 114.629 295.989,108.777 290.374,102.500 284.264 L 97.200 279.104 97.200 174.622 L 97.200 70.140 102.725 64.770 C 110.529 57.184,117.117 50.856,125.387 43.000 C 129.324 39.260,133.280 35.480,134.178 34.600 C 135.075 33.720,136.406 32.505,137.136 31.900 L 138.461 30.800 200.000 30.800 L 261.539 30.800 262.869 31.897 M291.600 31.754 C 291.600 31.892,295.020 35.428,299.200 39.610 C 303.380 43.793,306.800 47.072,306.800 46.897 C 306.800 46.298,305.445 44.602,303.688 43.000 C 302.723 42.120,299.911 39.420,297.439 37.000 C 292.592 32.255,291.600 31.363,291.600 31.754 M282.605 38.392 C 282.140 39.144,283.190 40.506,283.828 39.977 C 284.572 39.359,284.567 38.650,283.820 38.937 C 283.433 39.085,283.315 38.967,283.463 38.580 C 283.711 37.934,282.986 37.776,282.605 38.392 M85.509 53.281 C 82.987 55.766,80.091 58.520,79.073 59.400 L 77.222 61.000 77.211 75.276 C 77.204 84.351,77.054 89.643,76.800 89.800 C 76.535 89.964,76.400 123.527,76.400 189.191 L 76.400 288.335 77.852 289.668 C 78.651 290.400,81.596 293.250,84.397 296.000 C 87.198 298.750,91.252 302.620,93.405 304.600 C 95.559 306.580,99.607 310.450,102.401 313.200 C 105.196 315.950,109.414 320.000,111.775 322.200 C 114.136 324.400,118.964 329.035,122.504 332.500 L 128.940 338.800 199.974 338.800 L 271.009 338.800 277.862 332.100 C 281.631 328.415,286.468 323.780,288.611 321.800 C 290.753 319.820,294.695 316.040,297.370 313.400 C 300.046 310.760,302.976 307.939,303.883 307.132 C 304.789 306.325,305.427 305.560,305.299 305.432 C 305.171 305.304,305.268 305.200,305.515 305.200 C 306.042 305.200,308.623 302.846,315.600 296.000 C 318.403 293.250,321.349 290.400,322.148 289.668 L 323.600 288.335 323.600 249.629 C 323.600 212.640,323.568 210.895,322.869 210.262 C 321.919 209.403,234.936 209.224,234.080 210.080 C 233.720 210.440,233.600 215.512,233.600 230.444 L 233.600 250.327 230.734 252.864 C 229.157 254.259,227.092 256.165,226.144 257.100 L 224.421 258.800 200.000 258.800 L 175.579 258.800 173.847 257.100 C 172.894 256.165,170.828 254.264,169.257 252.875 L 166.400 250.349 166.400 174.639 L 166.400 98.929 169.284 96.364 C 173.009 93.053,175.200 90.733,175.200 90.102 C 175.200 88.770,173.547 89.910,168.151 94.964 L 165.200 97.728 165.200 174.623 L 165.200 251.517 168.258 254.259 C 169.939 255.766,172.128 257.765,173.121 258.700 L 174.927 260.400 199.690 260.400 C 226.196 260.400,225.131 260.482,227.389 258.254 C 228.088 257.564,230.042 255.766,231.730 254.259 L 234.800 251.517 234.800 231.746 L 234.800 211.974 235.700 211.622 C 236.922 211.143,319.766 211.131,321.024 211.609 L 322.000 211.980 322.000 249.675 L 322.000 287.370 317.264 291.985 C 314.659 294.523,309.775 299.210,306.412 302.400 C 303.048 305.590,299.092 309.370,297.620 310.800 C 296.148 312.230,291.916 316.280,288.215 319.800 C 284.515 323.320,280.284 327.370,278.813 328.800 C 277.342 330.230,274.643 332.795,272.817 334.500 L 269.496 337.600 199.963 337.600 L 130.429 337.600 127.732 335.100 C 126.248 333.725,123.751 331.340,122.183 329.800 C 120.615 328.260,116.480 324.300,112.995 321.000 C 109.510 317.700,105.277 313.650,103.588 312.000 C 101.899 310.350,97.926 306.550,94.759 303.555 C 91.591 300.561,86.524 295.698,83.498 292.751 L 77.996 287.391 78.098 174.369 L 78.200 61.346 84.359 55.266 C 87.747 51.922,90.424 49.090,90.307 48.974 C 90.190 48.857,88.031 50.795,85.509 53.281 M309.600 48.961 C 309.600 49.103,312.345 51.955,315.700 55.300 L 321.800 61.380 321.906 98.905 C 321.979 124.550,321.879 136.679,321.592 137.215 C 321.074 138.183,236.243 138.483,235.280 137.520 C 234.920 137.160,234.800 132.129,234.800 117.340 C 234.800 101.159,234.703 97.583,234.256 97.320 C 233.957 97.144,232.472 95.890,230.956 94.533 C 226.003 90.098,225.406 89.613,224.900 89.606 C 223.973 89.595,224.391 90.871,225.730 92.140 C 226.461 92.833,228.531 94.741,230.330 96.380 L 233.600 99.359 233.600 119.280 L 233.600 139.200 278.357 139.200 C 318.801 139.200,323.138 139.139,323.357 138.567 C 323.788 137.444,323.636 90.069,323.200 89.800 C 322.946 89.643,322.796 84.351,322.789 75.276 L 322.778 61.000 320.923 59.400 C 319.902 58.520,317.240 56.000,315.006 53.800 C 310.590 49.451,309.600 48.565,309.600 48.961 " stroke="none" fill="#b58b9a" fill-rule="evenodd"></path><path id="path3" d="M129.400 12.400 C 129.536 12.620,129.362 12.800,129.013 12.800 C 128.664 12.800,126.040 15.148,123.181 18.019 C 120.323 20.889,117.810 23.130,117.597 22.998 C 117.384 22.866,117.302 23.001,117.416 23.298 C 117.665 23.945,113.958 27.519,113.274 27.291 C 112.982 27.194,112.893 27.377,113.043 27.767 C 113.217 28.221,113.047 28.400,112.443 28.400 C 111.946 28.400,111.600 28.656,111.600 29.024 C 111.600 29.393,111.412 29.531,111.138 29.362 C 110.852 29.185,110.785 29.252,110.962 29.538 C 111.119 29.792,111.064 30.000,110.840 30.000 C 110.616 30.000,107.898 32.526,104.800 35.614 C 101.521 38.882,98.982 41.112,98.722 40.952 C 98.445 40.781,98.389 40.859,98.574 41.157 C 98.936 41.744,94.274 46.447,93.516 46.259 C 93.232 46.189,93.135 46.207,93.300 46.299 C 93.878 46.622,93.594 47.283,92.979 47.047 C 92.621 46.910,92.462 46.978,92.605 47.207 C 92.740 47.426,92.560 47.717,92.204 47.854 C 91.849 47.990,88.552 51.088,84.879 54.738 L 78.200 61.374 78.098 174.383 L 77.996 287.391 83.498 292.751 C 86.524 295.698,91.591 300.561,94.759 303.555 C 97.926 306.550,101.899 310.350,103.588 312.000 C 105.277 313.650,109.510 317.700,112.995 321.000 C 116.480 324.300,120.615 328.260,122.183 329.800 C 123.751 331.340,126.248 333.725,127.732 335.100 L 130.429 337.600 199.963 337.600 L 269.496 337.600 272.817 334.500 C 274.643 332.795,277.342 330.230,278.813 328.800 C 280.284 327.370,284.515 323.320,288.215 319.800 C 291.916 316.280,296.148 312.230,297.620 310.800 C 299.092 309.370,303.048 305.590,306.412 302.400 C 309.775 299.210,314.659 294.523,317.264 291.985 L 322.000 287.370 322.000 249.675 L 322.000 211.980 321.024 211.609 C 319.766 211.131,236.922 211.143,235.700 211.622 L 234.800 211.974 234.800 231.746 L 234.800 251.517 231.730 254.259 C 230.042 255.766,228.088 257.564,227.389 258.254 C 225.131 260.482,226.196 260.400,199.690 260.400 L 174.927 260.400 173.121 258.700 C 172.128 257.765,169.939 255.766,168.258 254.259 L 165.200 251.517 165.200 174.623 L 165.200 97.728 168.151 94.964 C 171.903 91.450,172.938 90.568,173.940 90.032 C 174.494 89.735,182.679 89.602,200.074 89.606 L 225.400 89.613 226.800 90.839 C 227.570 91.513,229.440 93.175,230.956 94.533 C 232.472 95.890,233.957 97.144,234.256 97.320 C 234.703 97.583,234.800 101.159,234.800 117.340 C 234.800 132.129,234.920 137.160,235.280 137.520 C 236.243 138.483,321.074 138.183,321.592 137.215 C 321.879 136.679,321.978 124.552,321.906 98.912 L 321.800 61.394 315.103 54.697 C 311.420 51.014,308.127 48.000,307.785 48.000 C 307.444 48.000,307.194 47.775,307.230 47.500 C 307.378 46.359,307.173 45.925,306.593 46.147 C 305.804 46.450,301.021 41.813,301.434 41.145 C 301.613 40.855,301.550 40.783,301.270 40.957 C 300.999 41.124,298.714 39.127,295.619 36.019 C 292.760 33.148,290.147 30.800,289.811 30.800 C 289.446 30.800,289.198 30.438,289.194 29.900 C 289.189 29.172,289.114 29.115,288.800 29.600 C 288.476 30.102,288.411 30.075,288.406 29.433 C 288.403 29.012,288.289 28.778,288.152 28.914 C 287.751 29.316,286.722 28.050,287.036 27.541 C 287.222 27.241,287.148 27.185,286.828 27.383 C 286.317 27.698,274.400 15.981,274.400 15.163 C 274.400 14.938,274.220 14.864,274.000 15.000 C 273.780 15.136,273.600 15.057,273.600 14.824 C 273.600 14.591,273.373 14.400,273.096 14.400 C 272.819 14.400,272.368 14.040,272.093 13.600 C 271.818 13.160,271.314 12.800,270.973 12.800 C 270.632 12.800,270.464 12.620,270.600 12.400 C 270.736 12.180,270.522 12.003,270.124 12.007 C 269.644 12.012,270.681 13.257,273.205 15.707 C 278.607 20.949,293.432 35.126,298.400 39.801 C 302.664 43.813,311.738 52.536,318.102 58.741 L 321.604 62.156 321.502 99.578 L 321.400 137.000 278.500 137.102 L 235.600 137.204 235.600 117.645 L 235.600 98.087 231.904 94.743 C 229.871 92.904,227.666 90.906,227.004 90.302 C 226.342 89.698,225.575 89.203,225.300 89.202 C 225.025 89.201,224.800 89.020,224.800 88.800 C 224.800 88.538,216.236 88.401,199.900 88.404 L 175.000 88.408 173.371 89.704 C 172.475 90.417,170.090 92.510,168.071 94.356 L 164.400 97.712 164.400 174.462 L 164.400 251.212 165.700 252.546 C 166.415 253.280,168.731 255.437,170.846 257.340 L 174.693 260.800 200.000 260.800 L 225.307 260.800 229.154 257.311 C 231.269 255.393,233.585 253.242,234.300 252.531 L 235.600 251.240 235.600 231.618 L 235.600 211.996 278.500 212.098 L 321.400 212.200 321.502 249.632 L 321.604 287.063 316.902 291.645 C 311.494 296.914,303.269 304.812,302.576 305.400 C 302.318 305.620,300.052 307.780,297.542 310.200 C 295.032 312.620,289.208 318.200,284.600 322.600 C 279.992 327.000,274.777 331.990,273.011 333.690 L 269.800 336.780 200.000 336.780 L 130.200 336.781 126.800 333.531 C 124.930 331.744,119.980 326.998,115.800 322.986 C 111.620 318.973,107.570 315.111,106.800 314.402 C 106.030 313.694,103.413 311.199,100.985 308.857 C 98.557 306.516,94.507 302.632,91.985 300.228 C 89.463 297.823,85.375 293.879,82.900 291.463 L 78.400 287.070 78.400 174.517 L 78.400 61.964 79.324 61.082 C 79.832 60.597,82.037 58.500,84.224 56.423 C 86.411 54.345,90.814 50.115,94.009 47.023 C 97.205 43.930,101.255 40.066,103.009 38.435 C 106.114 35.550,118.453 23.755,126.574 15.911 C 129.237 13.339,130.355 12.018,129.876 12.011 C 129.478 12.005,129.264 12.180,129.400 12.400 M133.758 20.914 C 132.941 21.385,124.895 28.995,111.231 42.218 C 107.584 45.747,103.250 49.886,101.600 51.414 C 99.950 52.942,95.945 56.797,92.700 59.980 L 86.800 65.768 86.800 174.826 L 86.800 283.884 89.100 286.028 C 91.225 288.010,102.136 298.443,115.199 310.985 C 127.252 322.556,129.497 324.698,131.676 326.705 L 133.952 328.800 200.022 328.800 L 266.092 328.800 269.146 325.889 C 270.826 324.287,276.247 319.112,281.193 314.389 C 286.140 309.665,291.894 304.180,293.980 302.200 C 296.067 300.220,299.850 296.608,302.387 294.173 C 304.924 291.738,308.396 288.420,310.102 286.799 L 313.205 283.852 313.102 252.026 L 313.000 220.200 278.400 220.200 L 243.800 220.200 243.696 237.874 L 243.592 255.548 242.549 256.369 C 241.975 256.820,239.862 258.695,237.853 260.536 C 235.844 262.377,232.967 264.989,231.460 266.342 L 228.719 268.800 199.793 268.800 C 183.884 268.800,170.807 268.665,170.733 268.500 C 170.660 268.335,168.712 266.490,166.404 264.400 C 164.097 262.310,161.487 259.945,160.604 259.144 C 159.722 258.343,158.415 257.202,157.700 256.609 L 156.400 255.529 156.400 174.788 L 156.400 94.048 160.100 90.485 C 162.135 88.526,164.604 86.220,165.588 85.362 C 166.571 84.503,167.942 83.260,168.635 82.600 C 171.647 79.730,168.582 79.988,199.456 80.005 C 218.491 80.016,227.545 80.157,228.094 80.450 C 228.928 80.897,230.099 81.860,233.182 84.637 C 234.182 85.538,235.601 86.798,236.335 87.437 C 237.069 88.077,239.002 89.843,240.630 91.361 L 243.592 94.122 243.696 111.561 L 243.800 129.000 278.400 129.000 L 313.000 129.000 313.102 97.372 L 313.205 65.745 306.889 59.572 C 303.415 56.178,299.589 52.513,298.386 51.429 C 297.184 50.345,293.405 46.745,289.988 43.429 C 286.572 40.113,282.162 35.890,280.188 34.044 C 278.215 32.198,274.440 28.581,271.800 26.007 C 269.160 23.433,266.607 21.118,266.126 20.864 C 264.832 20.177,134.950 20.227,133.758 20.914 M267.737 23.300 C 268.680 24.235,270.056 25.450,270.794 26.000 C 273.558 28.060,280.468 35.167,280.172 35.646 C 279.990 35.940,280.046 36.019,280.317 35.851 C 280.567 35.697,282.259 37.056,284.219 38.985 C 286.123 40.859,288.401 42.978,289.282 43.696 C 292.353 46.195,293.264 47.173,292.969 47.651 C 292.780 47.955,292.849 48.017,293.160 47.824 C 293.472 47.632,295.986 49.890,300.216 54.163 C 303.831 57.813,306.879 60.800,306.991 60.800 C 307.102 60.800,307.709 61.340,308.340 62.000 C 308.971 62.660,309.610 63.200,309.761 63.200 C 309.913 63.200,310.467 63.630,310.993 64.156 L 311.949 65.113 312.118 78.256 C 312.479 106.399,312.590 128.093,312.375 128.441 C 312.242 128.656,298.273 128.763,278.175 128.702 L 244.200 128.600 244.096 111.153 L 243.992 93.706 241.565 91.464 C 240.071 90.083,239.251 89.040,239.431 88.749 C 239.612 88.457,239.552 88.382,239.274 88.554 C 239.020 88.711,237.906 87.958,236.712 86.820 C 235.550 85.714,234.441 84.806,234.247 84.804 C 234.053 84.802,233.602 84.485,233.246 84.100 C 232.889 83.715,231.661 82.545,230.516 81.500 L 228.434 79.600 199.640 79.600 L 170.846 79.600 168.337 81.900 C 166.958 83.165,164.703 85.280,163.327 86.600 C 161.951 87.920,159.739 90.036,158.412 91.303 L 156.000 93.605 156.000 174.647 L 156.000 255.689 158.281 257.745 C 162.612 261.647,165.806 264.537,167.600 266.177 C 168.590 267.081,169.919 268.222,170.554 268.711 L 171.708 269.600 200.000 269.600 L 228.292 269.600 229.446 268.720 C 230.081 268.236,232.490 266.108,234.800 263.991 C 237.110 261.874,239.608 259.615,240.352 258.971 C 241.095 258.327,242.220 257.323,242.852 256.740 L 244.000 255.679 244.000 238.240 L 244.000 220.800 278.311 220.800 L 312.623 220.800 312.565 252.274 L 312.508 283.748 306.354 289.711 C 302.969 292.991,299.300 296.502,298.200 297.513 C 296.437 299.134,290.088 305.187,275.033 319.600 C 272.621 321.910,270.006 324.434,269.223 325.208 C 268.440 325.983,267.281 327.018,266.646 327.508 L 265.492 328.400 200.120 328.400 C 152.808 328.400,134.517 328.277,133.914 327.954 C 133.456 327.709,130.543 325.044,127.440 322.032 C 124.338 319.020,120.644 315.486,119.230 314.178 C 117.817 312.870,113.767 308.997,110.230 305.571 C 106.694 302.145,102.823 298.455,101.628 297.371 C 100.434 296.287,96.699 292.695,93.328 289.389 L 87.200 283.379 87.391 186.789 C 87.496 133.665,87.681 84.552,87.802 77.650 L 88.023 65.100 89.205 64.050 C 89.855 63.472,90.941 62.550,91.618 62.000 C 92.295 61.450,96.580 57.310,101.138 52.800 C 105.697 48.290,110.586 43.610,112.004 42.400 C 113.421 41.190,117.465 37.316,120.990 33.791 C 124.516 30.266,127.850 27.092,128.400 26.738 C 128.950 26.385,130.390 25.100,131.600 23.884 L 133.800 21.673 199.911 21.637 L 266.021 21.600 267.737 23.300 " stroke="none" fill="#687e9b" fill-rule="evenodd"></path><path id="path4" d="M137.136 31.900 C 136.406 32.505,135.075 33.720,134.178 34.600 C 133.280 35.480,129.324 39.260,125.387 43.000 C 117.117 50.856,110.529 57.184,102.725 64.770 L 97.200 70.140 97.200 174.622 L 97.200 279.104 102.500 284.264 C 108.777 290.374,114.629 295.989,120.398 301.436 C 122.706 303.616,126.396 307.131,128.598 309.247 C 130.799 311.362,133.748 314.185,135.150 315.519 L 137.700 317.946 141.350 318.073 C 143.358 318.143,171.406 318.110,203.680 318.000 L 262.360 317.800 264.880 315.448 C 266.266 314.155,269.020 311.542,271.000 309.642 C 275.172 305.639,290.172 291.323,296.610 285.200 C 299.039 282.890,301.426 280.449,301.913 279.775 L 302.800 278.550 302.800 255.104 C 302.800 234.322,302.729 231.586,302.171 231.029 C 301.122 229.980,254.998 230.083,254.434 231.136 C 253.951 232.038,253.902 257.051,254.381 258.200 C 255.129 259.995,255.338 257.128,255.369 244.651 L 255.400 231.838 256.400 231.559 C 258.071 231.093,300.349 231.145,301.226 231.614 C 301.977 232.016,302.000 232.698,302.000 255.028 C 302.000 279.537,302.016 279.322,300.115 280.517 C 299.838 280.691,298.008 282.401,296.050 284.317 C 294.092 286.233,290.118 290.050,287.219 292.800 C 284.321 295.550,280.198 299.510,278.058 301.600 C 275.917 303.690,272.627 306.840,270.746 308.600 C 268.864 310.360,266.247 312.828,264.929 314.085 C 263.611 315.341,262.033 316.559,261.422 316.792 C 260.658 317.082,241.351 317.207,199.706 317.192 C 134.466 317.168,138.067 317.285,136.172 315.138 C 135.716 314.622,133.108 312.130,130.375 309.600 C 123.307 303.055,120.000 299.596,120.000 298.748 C 120.000 298.557,119.766 298.400,119.480 298.400 C 118.968 298.400,114.354 294.364,109.141 289.355 C 107.678 287.950,106.283 286.800,106.041 286.800 C 105.798 286.800,105.600 286.617,105.600 286.394 C 105.600 286.170,103.973 284.376,101.984 282.406 L 98.368 278.824 98.451 276.512 C 98.497 275.240,98.502 228.411,98.462 172.447 C 98.406 91.990,98.495 70.558,98.887 70.047 C 99.503 69.244,105.302 63.605,110.558 58.696 C 112.735 56.663,115.544 53.965,116.800 52.700 C 118.056 51.435,119.221 50.400,119.388 50.400 C 119.675 50.400,121.089 48.957,123.527 46.177 C 124.117 45.505,124.988 44.690,125.461 44.367 C 125.935 44.043,128.980 41.203,132.228 38.054 C 135.476 34.905,138.536 32.176,139.028 31.989 C 139.520 31.802,167.113 31.633,200.347 31.613 L 260.772 31.576 262.286 32.899 C 263.119 33.627,264.270 34.459,264.844 34.749 C 265.418 35.038,266.389 36.068,267.002 37.038 C 267.615 38.007,268.225 38.800,268.358 38.800 C 268.580 38.801,271.417 41.147,272.087 41.884 C 272.244 42.058,273.280 43.207,274.387 44.437 C 275.495 45.668,277.031 47.014,277.801 47.428 C 278.570 47.843,279.200 48.369,279.200 48.598 C 279.200 48.827,281.102 50.811,283.427 53.007 C 285.752 55.203,288.947 58.266,290.527 59.813 C 292.107 61.361,294.945 64.081,296.833 65.859 C 302.461 71.155,301.922 68.194,301.980 94.141 C 302.017 110.567,301.907 116.630,301.566 117.041 C 300.825 117.934,256.724 117.867,255.829 116.971 C 255.283 116.425,255.200 114.610,255.200 103.152 C 255.200 88.402,255.216 88.500,252.449 86.800 C 251.554 86.250,250.817 85.679,250.811 85.531 C 250.795 85.147,248.861 83.266,246.567 81.404 C 245.485 80.526,243.754 78.996,242.721 78.004 C 236.096 71.645,232.817 69.021,232.233 69.612 C 231.922 69.927,231.991 70.158,232.480 70.434 C 232.854 70.645,233.394 71.040,233.680 71.311 C 233.966 71.582,236.000 73.405,238.200 75.360 C 240.400 77.316,243.529 80.105,245.153 81.558 C 246.777 83.011,248.738 84.740,249.511 85.400 C 250.284 86.060,251.555 87.185,252.336 87.900 C 253.117 88.615,253.856 89.200,253.978 89.200 C 254.100 89.200,254.200 95.665,254.200 103.567 C 254.200 111.468,254.350 118.083,254.533 118.267 C 255.237 118.970,301.456 118.887,302.162 118.181 C 302.732 117.611,302.800 115.002,302.800 93.842 L 302.800 70.141 294.700 62.307 C 285.718 53.620,286.083 53.972,273.822 42.200 C 263.684 32.467,264.569 33.299,262.869 31.897 L 261.539 30.800 200.000 30.800 L 138.461 30.800 137.136 31.900 M195.900 68.674 C 177.749 68.758,167.600 68.946,167.600 69.198 C 167.600 69.629,230.191 69.981,231.151 69.555 C 233.328 68.590,230.319 68.514,195.900 68.674 M164.168 71.161 C 160.898 74.417,158.141 76.913,156.507 78.098 C 155.576 78.773,154.709 79.612,154.581 79.963 C 154.453 80.313,153.249 81.500,151.905 82.600 C 148.770 85.167,145.600 88.284,145.600 88.799 C 145.600 89.642,146.492 89.126,148.534 87.100 C 149.698 85.945,151.629 84.121,152.825 83.046 C 154.747 81.319,156.924 79.323,164.600 72.251 C 165.700 71.238,166.735 70.407,166.900 70.404 C 167.065 70.402,167.200 70.220,167.200 70.000 C 167.200 69.099,165.638 69.697,164.168 71.161 M145.067 89.867 C 144.687 90.246,144.769 257.465,145.150 259.400 C 145.429 260.823,147.888 263.979,148.740 264.009 C 148.883 264.014,149.656 264.599,150.459 265.309 C 151.261 266.019,152.252 266.875,152.660 267.212 C 153.069 267.548,153.763 268.280,154.202 268.837 C 154.641 269.394,155.291 270.019,155.646 270.225 C 156.232 270.564,161.671 275.435,165.108 278.698 L 166.475 279.995 199.814 280.040 L 233.154 280.084 234.813 278.742 C 235.725 278.004,237.791 276.140,239.403 274.600 C 241.015 273.060,245.039 269.460,248.344 266.600 C 253.706 261.961,255.145 260.400,254.061 260.400 C 253.875 260.400,251.490 262.406,248.761 264.858 C 246.032 267.311,242.274 270.686,240.409 272.358 C 238.543 274.031,236.049 276.300,234.864 277.400 L 232.711 279.400 200.163 279.507 L 167.614 279.614 163.707 276.113 C 161.558 274.188,159.710 272.517,159.600 272.400 C 159.490 272.284,156.610 269.695,153.200 266.647 C 149.790 263.599,146.687 260.750,146.306 260.315 C 145.650 259.570,145.616 254.730,145.706 174.563 C 145.757 127.833,145.695 89.600,145.567 89.600 C 145.438 89.600,145.213 89.720,145.067 89.867 " stroke="none" fill="#cb292e" fill-rule="evenodd"></path></g></svg>